<mxfile>
    <diagram id="fax_ck6D2539z3rF1QO0" name="Page-1">
        <mxGraphModel dx="649" dy="523" grid="1" gridSize="10" guides="1" tooltips="1" connect="1" arrows="1" fold="1" page="0" pageScale="1" pageWidth="827" pageHeight="1169" background="#333333" math="0" shadow="0">
            <root>
                <mxCell id="0"/>
                <mxCell id="1" parent="0"/>
                <mxCell id="5" value="" style="group" vertex="1" connectable="0" parent="1">
                    <mxGeometry x="80" y="400" width="600" height="320" as="geometry"/>
                </mxCell>
                <mxCell id="TbIRErAeYxQW7g-PSDUP-4" value="VPC" style="points=[[0,0],[0.25,0],[0.5,0],[0.75,0],[1,0],[1,0.25],[1,0.5],[1,0.75],[1,1],[0.75,1],[0.5,1],[0.25,1],[0,1],[0,0.75],[0,0.5],[0,0.25]];outlineConnect=0;gradientColor=none;html=1;whiteSpace=wrap;fontSize=12;fontStyle=0;shape=mxgraph.aws4.group;grIcon=mxgraph.aws4.group_vpc;strokeColor=#248814;fillColor=none;verticalAlign=top;align=left;spacingLeft=30;fontColor=#AAB7B8;dashed=0;" parent="5" vertex="1">
                    <mxGeometry width="600" height="320" as="geometry"/>
                </mxCell>
                <mxCell id="4" value="&lt;div style=&quot;font-family: &amp;quot;droid sans mono&amp;quot;, monospace, monospace, &amp;quot;droid sans fallback&amp;quot;; font-size: 14px; line-height: 19px;&quot;&gt;&lt;span style=&quot;&quot;&gt;10.0.0.0/16&lt;/span&gt;&lt;/div&gt;" style="text;html=1;align=center;verticalAlign=middle;whiteSpace=wrap;rounded=0;labelBackgroundColor=none;" vertex="1" parent="5">
                    <mxGeometry x="470" y="300" width="130" height="20" as="geometry"/>
                </mxCell>
                <mxCell id="3" value="" style="group" vertex="1" connectable="0" parent="1">
                    <mxGeometry x="40" y="360" width="680" height="400" as="geometry"/>
                </mxCell>
                <mxCell id="TbIRErAeYxQW7g-PSDUP-1" value="Region" style="points=[[0,0],[0.25,0],[0.5,0],[0.75,0],[1,0],[1,0.25],[1,0.5],[1,0.75],[1,1],[0.75,1],[0.5,1],[0.25,1],[0,1],[0,0.75],[0,0.5],[0,0.25]];outlineConnect=0;gradientColor=none;html=1;whiteSpace=wrap;fontSize=12;fontStyle=0;shape=mxgraph.aws4.group;grIcon=mxgraph.aws4.group_region;strokeColor=#147EBA;fillColor=none;verticalAlign=top;align=left;spacingLeft=30;fontColor=#147EBA;dashed=1;" parent="3" vertex="1">
                    <mxGeometry width="680" height="400" as="geometry"/>
                </mxCell>
                <mxCell id="2" value="Mumbai (ap-south-1)" style="text;html=1;strokeColor=none;fillColor=none;align=center;verticalAlign=middle;whiteSpace=wrap;rounded=0;" vertex="1" parent="3">
                    <mxGeometry x="430" y="380" width="250" height="20" as="geometry"/>
                </mxCell>
                <mxCell id="TbIRErAeYxQW7g-PSDUP-5" value="Availability Zone" style="fillColor=none;strokeColor=#147EBA;dashed=1;verticalAlign=top;fontStyle=0;fontColor=#147EBA;" parent="1" vertex="1">
                    <mxGeometry x="120" y="440" width="520" height="120" as="geometry"/>
                </mxCell>
                <mxCell id="TbIRErAeYxQW7g-PSDUP-6" value="Availability Zone" style="fillColor=none;strokeColor=#147EBA;dashed=1;verticalAlign=top;fontStyle=0;fontColor=#147EBA;" parent="1" vertex="1">
                    <mxGeometry x="120" y="580" width="520" height="120" as="geometry"/>
                </mxCell>
                <mxCell id="TbIRErAeYxQW7g-PSDUP-7" value="Public subnet" style="points=[[0,0],[0.25,0],[0.5,0],[0.75,0],[1,0],[1,0.25],[1,0.5],[1,0.75],[1,1],[0.75,1],[0.5,1],[0.25,1],[0,1],[0,0.75],[0,0.5],[0,0.25]];outlineConnect=0;gradientColor=none;html=1;whiteSpace=wrap;fontSize=12;fontStyle=0;shape=mxgraph.aws4.group;grIcon=mxgraph.aws4.group_security_group;grStroke=0;strokeColor=#248814;fillColor=#E9F3E6;verticalAlign=top;align=left;spacingLeft=30;fontColor=#248814;dashed=0;" parent="1" vertex="1">
                    <mxGeometry x="160" y="470" width="440" height="80" as="geometry"/>
                </mxCell>
                <mxCell id="TbIRErAeYxQW7g-PSDUP-8" value="Private subnet" style="points=[[0,0],[0.25,0],[0.5,0],[0.75,0],[1,0],[1,0.25],[1,0.5],[1,0.75],[1,1],[0.75,1],[0.5,1],[0.25,1],[0,1],[0,0.75],[0,0.5],[0,0.25]];outlineConnect=0;gradientColor=none;html=1;whiteSpace=wrap;fontSize=12;fontStyle=0;shape=mxgraph.aws4.group;grIcon=mxgraph.aws4.group_security_group;grStroke=0;strokeColor=#147EBA;fillColor=#E6F2F8;verticalAlign=top;align=left;spacingLeft=30;fontColor=#147EBA;dashed=0;" parent="1" vertex="1">
                    <mxGeometry x="160" y="610" width="440" height="80" as="geometry"/>
                </mxCell>
                <mxCell id="TbIRErAeYxQW7g-PSDUP-9" value="" style="outlineConnect=0;fontColor=#232F3E;gradientColor=none;fillColor=#5A30B5;strokeColor=none;dashed=0;verticalLabelPosition=bottom;verticalAlign=top;align=center;html=1;fontSize=12;fontStyle=0;aspect=fixed;pointerEvents=1;shape=mxgraph.aws4.router;" parent="1" vertex="1">
                    <mxGeometry x="620" y="550" width="40" height="40" as="geometry"/>
                </mxCell>
                <mxCell id="TbIRErAeYxQW7g-PSDUP-10" value="" style="outlineConnect=0;fontColor=#232F3E;gradientColor=none;fillColor=#5A30B5;strokeColor=none;dashed=0;verticalLabelPosition=bottom;verticalAlign=top;align=center;html=1;fontSize=12;fontStyle=0;aspect=fixed;pointerEvents=1;shape=mxgraph.aws4.internet_gateway;" parent="1" vertex="1">
                    <mxGeometry x="700" y="550" width="40" height="40" as="geometry"/>
                </mxCell>
                <mxCell id="TbIRErAeYxQW7g-PSDUP-11" value="Router" style="text;html=1;align=center;verticalAlign=middle;whiteSpace=wrap;rounded=0;fontColor=#FFFFFF;" parent="1" vertex="1">
                    <mxGeometry x="620" y="600" width="40" height="20" as="geometry"/>
                </mxCell>
                <mxCell id="TbIRErAeYxQW7g-PSDUP-12" value="Internet&lt;br&gt;Geteway" style="text;html=1;align=center;verticalAlign=middle;whiteSpace=wrap;rounded=0;fontColor=#FFFFFF;" parent="1" vertex="1">
                    <mxGeometry x="700" y="600" width="40" height="20" as="geometry"/>
                </mxCell>
                <mxCell id="6" value="&lt;span style=&quot;color: rgb(22 , 25 , 31) ; font-family: &amp;#34;amazon ember&amp;#34; , &amp;#34;helvetica neue&amp;#34; , &amp;#34;roboto&amp;#34; , &amp;#34;arial&amp;#34; , sans-serif ; font-size: 16px ; text-align: left&quot;&gt;10.0.1.0/24&lt;/span&gt;" style="text;html=1;strokeColor=none;fillColor=none;align=center;verticalAlign=middle;whiteSpace=wrap;rounded=0;labelBackgroundColor=none;fontColor=#000000;" vertex="1" parent="1">
                    <mxGeometry x="460" y="670" width="140" height="20" as="geometry"/>
                </mxCell>
                <mxCell id="8" value="&lt;span style=&quot;color: rgb(22 , 25 , 31) ; font-family: &amp;#34;amazon ember&amp;#34; , &amp;#34;helvetica neue&amp;#34; , &amp;#34;roboto&amp;#34; , &amp;#34;arial&amp;#34; , sans-serif ; font-size: 16px ; text-align: left&quot;&gt;10.0.0.0/24&lt;/span&gt;" style="text;html=1;strokeColor=none;fillColor=none;align=center;verticalAlign=middle;whiteSpace=wrap;rounded=0;labelBackgroundColor=none;fontColor=#000000;" vertex="1" parent="1">
                    <mxGeometry x="460" y="530" width="140" height="20" as="geometry"/>
                </mxCell>
            </root>
        </mxGraphModel>
    </diagram>
</mxfile>